<mxfile host="65bd71144e">
    <diagram name="ページ1" id="3pXzeVXnzSFwzRwiyG8C">
        <mxGraphModel dx="1993" dy="1861" grid="1" gridSize="10" guides="1" tooltips="1" connect="1" arrows="1" fold="1" page="1" pageScale="1" pageWidth="827" pageHeight="1169" math="0" shadow="0">
            <root>
                <mxCell id="0"/>
                <mxCell id="1" parent="0"/>
                <mxCell id="3TgQmUl0jL6FEzMkaFML-7" style="edgeStyle=orthogonalEdgeStyle;rounded=0;orthogonalLoop=1;jettySize=auto;html=1;startArrow=classic;startFill=1;" parent="1" source="3TgQmUl0jL6FEzMkaFML-1" target="3TgQmUl0jL6FEzMkaFML-5" edge="1">
                    <mxGeometry relative="1" as="geometry"/>
                </mxCell>
                <mxCell id="3TgQmUl0jL6FEzMkaFML-1" value="" style="image;points=[];aspect=fixed;html=1;align=center;shadow=0;dashed=0;image=img/lib/allied_telesis/computer_and_terminals/Personal_Computer.svg;" parent="1" vertex="1">
                    <mxGeometry x="210" y="180" width="100" height="135.53" as="geometry"/>
                </mxCell>
                <mxCell id="3TgQmUl0jL6FEzMkaFML-2" value="C drive" style="text;html=1;strokeColor=none;fillColor=none;align=center;verticalAlign=middle;whiteSpace=wrap;rounded=0;" parent="1" vertex="1">
                    <mxGeometry x="330" y="180" width="60" height="30" as="geometry"/>
                </mxCell>
                <mxCell id="3TgQmUl0jL6FEzMkaFML-3" value="" style="dashed=0;outlineConnect=0;html=1;align=center;labelPosition=center;verticalLabelPosition=bottom;verticalAlign=top;shape=mxgraph.weblogos.google_drive" parent="1" vertex="1">
                    <mxGeometry x="226.8" y="20" width="66.4" height="58" as="geometry"/>
                </mxCell>
                <mxCell id="3TgQmUl0jL6FEzMkaFML-4" value="G drive" style="text;html=1;strokeColor=none;fillColor=none;align=center;verticalAlign=middle;whiteSpace=wrap;rounded=0;" parent="1" vertex="1">
                    <mxGeometry x="320" y="20" width="60" height="30" as="geometry"/>
                </mxCell>
                <mxCell id="3TgQmUl0jL6FEzMkaFML-5" value="" style="sketch=0;pointerEvents=1;shadow=0;dashed=0;html=1;strokeColor=none;fillColor=#434445;aspect=fixed;labelPosition=center;verticalLabelPosition=bottom;verticalAlign=top;align=center;outlineConnect=0;shape=mxgraph.vvd.ssd;" parent="1" vertex="1">
                    <mxGeometry x="210" y="390" width="98.59" height="70" as="geometry"/>
                </mxCell>
                <mxCell id="3TgQmUl0jL6FEzMkaFML-6" value="SSD" style="text;html=1;strokeColor=none;fillColor=none;align=center;verticalAlign=middle;whiteSpace=wrap;rounded=0;" parent="1" vertex="1">
                    <mxGeometry x="330" y="370" width="60" height="30" as="geometry"/>
                </mxCell>
                <mxCell id="3TgQmUl0jL6FEzMkaFML-8" style="edgeStyle=orthogonalEdgeStyle;rounded=0;orthogonalLoop=1;jettySize=auto;html=1;startArrow=classic;startFill=1;" parent="1" source="3TgQmUl0jL6FEzMkaFML-3" edge="1">
                    <mxGeometry relative="1" as="geometry">
                        <mxPoint x="260.25" y="106" as="sourcePoint"/>
                        <mxPoint x="259.25" y="180" as="targetPoint"/>
                    </mxGeometry>
                </mxCell>
                <mxCell id="2" value="Gdrive &amp;gt;&amp;gt; C drive&lt;div&gt;&lt;font color=&quot;#000000&quot;&gt;C drive &amp;gt;&amp;gt; SSD&lt;br&gt;&lt;/font&gt;&lt;div&gt;&lt;br&gt;&lt;/div&gt;&lt;div&gt;取り込み用のフォルダを指定してC driveに上書き保存&lt;/div&gt;&lt;div&gt;(可能であれば、フォルダ名とタイムスタンプ、容量が一致していたら更新はスキップ)&lt;/div&gt;&lt;/div&gt;&lt;div&gt;&lt;br&gt;&lt;/div&gt;&lt;div&gt;G drive &amp;gt;&amp;gt; C driveのみ&lt;/div&gt;&lt;div&gt;desktop.ini ファイルは不要なので削除&lt;/div&gt;" style="text;html=1;align=left;verticalAlign=top;whiteSpace=wrap;rounded=0;fillColor=#dae8fc;strokeColor=#6c8ebf;horizontal=1;" parent="1" vertex="1">
                    <mxGeometry x="470" y="115" width="330" height="160" as="geometry"/>
                </mxCell>
                <mxCell id="3" value="" style="shape=flexArrow;endArrow=classic;html=1;" parent="1" edge="1">
                    <mxGeometry width="50" height="50" relative="1" as="geometry">
                        <mxPoint x="380" y="100" as="sourcePoint"/>
                        <mxPoint x="380" y="170" as="targetPoint"/>
                    </mxGeometry>
                </mxCell>
                <mxCell id="4" value="" style="shape=flexArrow;endArrow=classic;html=1;" parent="1" edge="1">
                    <mxGeometry width="50" height="50" relative="1" as="geometry">
                        <mxPoint x="380" y="290" as="sourcePoint"/>
                        <mxPoint x="380" y="360" as="targetPoint"/>
                    </mxGeometry>
                </mxCell>
                <mxCell id="6" value="" style="shape=flexArrow;endArrow=classic;html=1;" parent="1" edge="1">
                    <mxGeometry width="50" height="50" relative="1" as="geometry">
                        <mxPoint x="140" y="370" as="sourcePoint"/>
                        <mxPoint x="140" y="300" as="targetPoint"/>
                    </mxGeometry>
                </mxCell>
                <mxCell id="7" value="SSD &amp;gt;&amp;gt; C drive&lt;div&gt;&lt;font color=&quot;#000000&quot;&gt;C drive &amp;gt;&amp;gt; G drive&lt;br&gt;&lt;/font&gt;&lt;div&gt;&lt;br&gt;&lt;/div&gt;&lt;div&gt;指定したフォルダ以下の子フォルダを作成&lt;/div&gt;&lt;div&gt;最下層のファイルが存在するパスまで作成していく&lt;/div&gt;&lt;div&gt;(フォルダの作成だけでファイルはコピーしない)&lt;/div&gt;&lt;/div&gt;" style="text;html=1;align=left;verticalAlign=top;whiteSpace=wrap;rounded=0;fillColor=#f8cecc;strokeColor=#b85450;horizontal=1;" parent="1" vertex="1">
                    <mxGeometry x="-250" y="197.76" width="330" height="100" as="geometry"/>
                </mxCell>
                <mxCell id="8" value="" style="shape=flexArrow;endArrow=classic;html=1;" parent="1" edge="1">
                    <mxGeometry width="50" height="50" relative="1" as="geometry">
                        <mxPoint x="130" y="170" as="sourcePoint"/>
                        <mxPoint x="130" y="100" as="targetPoint"/>
                    </mxGeometry>
                </mxCell>
                <mxCell id="9" value="引数によって切り替える&lt;div&gt;&lt;br&gt;&lt;/div&gt;&lt;div&gt;G drive &amp;gt;&amp;gt; SSDへのバックアップ機能&lt;/div&gt;&lt;div&gt;--backup-to-ssd or -btd&lt;/div&gt;&lt;div&gt;&lt;br&gt;&lt;/div&gt;&lt;div&gt;SSD &amp;gt;&amp;gt; G driveへのフォルダ構成作成機能&lt;/div&gt;&lt;div&gt;--create-destination-folders or -cdf&lt;/div&gt;&lt;div&gt;&lt;br&gt;&lt;/div&gt;&lt;div&gt;ヘルプ表示&lt;/div&gt;&lt;div&gt;--help or -h&lt;/div&gt;&lt;div&gt;&lt;br&gt;&lt;/div&gt;&lt;div&gt;詳細なログ&lt;/div&gt;&lt;div&gt;--verbose or -v&lt;/div&gt;" style="rounded=0;whiteSpace=wrap;html=1;fillColor=#fff2cc;strokeColor=#d6b656;verticalAlign=top;align=left;" parent="1" vertex="1">
                    <mxGeometry x="-250" y="-190" width="270" height="210" as="geometry"/>
                </mxCell>
                <mxCell id="10" value="フォルダ構成作成機能" style="text;html=1;align=center;verticalAlign=middle;whiteSpace=wrap;rounded=0;fontSize=18;fontStyle=1;fontColor=#FF0000;" parent="1" vertex="1">
                    <mxGeometry x="-260" y="155.53" width="210" height="30" as="geometry"/>
                </mxCell>
                <mxCell id="11" value="バックアップ作成機能" style="text;html=1;align=center;verticalAlign=middle;whiteSpace=wrap;rounded=0;fontSize=18;fontStyle=1;fontColor=#0000FF;" parent="1" vertex="1">
                    <mxGeometry x="460" y="70" width="210" height="30" as="geometry"/>
                </mxCell>
                <mxCell id="12" value="自分用" style="shape=actor;whiteSpace=wrap;html=1;labelPosition=center;verticalLabelPosition=bottom;align=center;verticalAlign=top;" parent="1" vertex="1">
                    <mxGeometry x="320" y="215.53" width="40" height="40" as="geometry"/>
                </mxCell>
                <mxCell id="13" value="自分用" style="shape=actor;whiteSpace=wrap;html=1;labelPosition=center;verticalLabelPosition=bottom;align=center;verticalAlign=top;" parent="1" vertex="1">
                    <mxGeometry x="310" y="-59.99999999999997" width="40" height="40" as="geometry"/>
                </mxCell>
                <mxCell id="14" value="家族用" style="shape=actor;whiteSpace=wrap;html=1;labelPosition=center;verticalLabelPosition=bottom;align=center;verticalAlign=top;" parent="1" vertex="1">
                    <mxGeometry x="253.2" y="-59.99999999999997" width="40" height="40" as="geometry"/>
                </mxCell>
                <mxCell id="VxDiZCZPbSG1UnPweriQ-14" value="Source" style="text;html=1;strokeColor=none;fillColor=none;align=center;verticalAlign=middle;whiteSpace=wrap;rounded=0;fontSize=15;fontStyle=1" parent="1" vertex="1">
                    <mxGeometry x="430" width="60" height="30" as="geometry"/>
                </mxCell>
                <mxCell id="VxDiZCZPbSG1UnPweriQ-15" value="destination" style="text;html=1;strokeColor=none;fillColor=none;align=center;verticalAlign=middle;whiteSpace=wrap;rounded=0;fontSize=15;fontStyle=1" parent="1" vertex="1">
                    <mxGeometry x="450" y="370" width="60" height="30" as="geometry"/>
                </mxCell>
                <mxCell id="VxDiZCZPbSG1UnPweriQ-16" value="Source" style="text;html=1;strokeColor=none;fillColor=none;align=center;verticalAlign=middle;whiteSpace=wrap;rounded=0;fontSize=15;fontStyle=1" parent="1" vertex="1">
                    <mxGeometry x="60" y="380" width="60" height="30" as="geometry"/>
                </mxCell>
                <mxCell id="VxDiZCZPbSG1UnPweriQ-17" value="destination" style="text;html=1;strokeColor=none;fillColor=none;align=center;verticalAlign=middle;whiteSpace=wrap;rounded=0;fontSize=15;fontStyle=1" parent="1" vertex="1">
                    <mxGeometry x="70" width="60" height="30" as="geometry"/>
                </mxCell>
            </root>
        </mxGraphModel>
    </diagram>
</mxfile>